Coordinates
version=1
nRows=14
nColumns=63
inDegrees=yes

Units are S.I. units (second, meters, Newtons, ...)
If the header above contains a line with 'inDegrees', this indicates whether rotational values are in degrees (yes) or radians (no).

endheader
time	pelvis_tilt	pelvis_list	pelvis_rotation	pelvis_tx	pelvis_ty	pelvis_tz	hip_flexion_r	hip_adduction_r	hip_rotation_r	knee_angle_r	knee_angle_r_beta	ankle_angle_r	subtalar_angle_r	mtp_angle_r	hip_flexion_l	hip_adduction_l	hip_rotation_l	knee_angle_l	knee_angle_l_beta	ankle_angle_l	subtalar_angle_l	mtp_angle_l	L5_S1_Flex_Ext	L5_S1_Lat_Bending	L5_S1_axial_rotation	L4_L5_Flex_Ext	L4_L5_Lat_Bending	L4_L5_axial_rotation	L3_L4_Flex_Ext	L3_L4_Lat_Bending	L3_L4_axial_rotation	L2_L3_Flex_Ext	L2_L3_Lat_Bending	L2_L3_axial_rotation	L1_L2_Flex_Ext	L1_L2_Lat_Bending	L1_L2_axial_rotation	L1_T12_Flex_Ext	L1_T12_Lat_Bending	L1_T12_axial_rotation	Abs_r3	Abs_r2	Abs_r1	Abs_t1	Abs_t2	neck_flexion	neck_bending	neck_rotation	arm_flex_r	arm_add_r	arm_rot_r	elbow_flex_r	pro_sup_r	wrist_flex_r	wrist_dev_r	arm_flex_l	arm_add_l	arm_rot_l	elbow_flex_l	pro_sup_l	wrist_flex_l	wrist_dev_l
1.700000	-3.685175	-5.889273	85.026791	0.300137	0.929082	0.702713	-1.412709	-3.479862	2.282665	5.462318	0.095335	28.841892	13.482082	0.000000	-3.571775	0.637008	2.712123	0.701094	0.012236	27.549049	-10.942468	0.000000	-0.120151	-0.319486	2.247362	-0.223133	-0.424917	2.387822	-0.197396	-0.776798	2.387822	-0.137321	-0.776798	1.966441	-0.111572	-0.651496	1.825981	-0.068654	-0.494884	1.685521	-0.858228	-3.614091	12.499151	0.000000	0.000000	10.240740	3.975233	-7.612175	117.371438	-106.697124	156.816891	10.018204	12.350365	5.267210	-14.985337	-137.944663	-90.415223	-40.846470	4.961366	19.420700	-14.615790	-2.133314
1.720000	-3.660589	-5.937093	85.031660	0.300031	0.929075	0.702491	-1.412978	-3.454597	2.547551	5.351005	0.093393	28.885731	13.310379	0.000000	-3.527677	0.615290	3.155049	0.657048	0.011468	27.472540	-11.562255	0.000000	-0.114393	-0.318598	2.210554	-0.212438	-0.423736	2.348713	-0.187936	-0.774640	2.348713	-0.130739	-0.774640	1.934234	-0.106225	-0.649686	1.796075	-0.065364	-0.493509	1.657915	-0.817095	-3.604050	12.294436	0.000000	0.000000	10.315380	3.913317	-7.827500	118.283553	-107.229119	151.118266	11.348730	18.761691	4.252815	-13.867925	-130.595626	-89.019625	-44.623162	7.337740	26.502043	-14.243382	-1.764756
1.740000	-3.625822	-5.975099	85.036835	0.299917	0.929031	0.702249	-1.419159	-3.420679	2.777457	5.267605	0.091937	28.970256	13.121464	0.000000	-3.500893	0.587443	3.514122	0.622534	0.010865	27.465898	-12.056982	0.000000	-0.108965	-0.315093	2.178466	-0.202359	-0.419074	2.314620	-0.179018	-0.766118	2.314620	-0.124536	-0.766118	1.906158	-0.101185	-0.642538	1.770004	-0.062263	-0.488080	1.633850	-0.778325	-3.564399	12.115976	0.000000	0.000000	10.421461	3.850569	-8.001920	119.268361	-108.004947	143.316428	13.135275	27.089094	2.986151	-12.254226	-122.395128	-87.561439	-48.524404	9.902465	34.053627	-14.034073	-1.533309
1.760000	-3.567752	-6.002960	85.036405	0.299806	0.928976	0.702028	-1.425408	-3.367945	2.908537	5.221487	0.091132	29.075784	13.017173	0.000000	-3.490693	0.538432	3.687307	0.602956	0.010524	27.524457	-12.304305	0.000000	-0.103274	-0.309260	2.149314	-0.191790	-0.411315	2.283647	-0.169669	-0.751934	2.283647	-0.118032	-0.751934	1.880650	-0.095900	-0.630642	1.746318	-0.059011	-0.479043	1.611986	-0.737675	-3.498407	11.953842	0.000000	0.000000	10.558142	3.836467	-8.183074	120.161189	-108.568040	137.696092	14.628624	33.459337	1.913072	-10.774869	-114.474195	-86.067212	-53.204304	12.500524	41.656503	-13.879620	-1.507460
1.780000	-3.495804	-6.014912	85.053213	0.299698	0.928901	0.701846	-1.438551	-3.303493	2.893543	5.213639	0.090995	29.204790	13.022710	0.000000	-3.500143	0.475089	3.784632	0.600206	0.010476	27.585215	-12.421894	0.000000	-0.098379	-0.301905	2.127060	-0.182700	-0.401534	2.260001	-0.161627	-0.734053	2.260001	-0.112437	-0.734053	1.861177	-0.091355	-0.615645	1.728236	-0.056214	-0.467651	1.595295	-0.702712	-3.415213	11.830069	0.000000	0.000000	10.726257	3.859550	-8.372292	121.015369	-109.207963	131.814327	16.212417	40.057857	0.778447	-9.112009	-106.612505	-84.603370	-58.353965	15.147786	49.269183	-13.750068	-1.605288
1.800000	-3.416293	-6.013173	85.077274	0.299613	0.928799	0.701682	-1.463808	-3.229812	2.863989	5.223599	0.091169	29.326989	13.009524	0.000000	-3.531566	0.405189	3.812393	0.607397	0.010601	27.640811	-12.444081	0.000000	-0.093290	-0.293810	2.112828	-0.173248	-0.390767	2.244879	-0.153265	-0.714370	2.244879	-0.106621	-0.714370	1.848724	-0.086629	-0.599138	1.716673	-0.053306	-0.455112	1.584621	-0.666358	-3.323639	11.750914	0.000000	0.000000	10.911249	3.886024	-8.607174	121.833735	-109.908341	125.644394	17.869600	46.752459	-0.343305	-7.329704	-99.240202	-83.239178	-63.146702	17.625020	56.772072	-13.933612	-1.467425
1.820000	-3.323699	-6.005051	85.104299	0.299520	0.928672	0.701551	-1.492239	-3.143600	2.815439	5.246708	0.091572	29.433970	13.003333	0.000000	-3.573987	0.323651	3.706806	0.628005	0.010961	27.703284	-12.293366	0.000000	-0.086453	-0.283446	2.107686	-0.160553	-0.376984	2.239416	-0.142034	-0.689171	2.239416	-0.098808	-0.689171	1.844225	-0.080281	-0.578004	1.712495	-0.049399	-0.439058	1.580764	-0.617528	-3.206402	11.722315	0.000000	0.000000	11.069050	3.913914	-8.855322	122.554581	-110.607377	119.356537	19.477380	53.314850	-1.427528	-5.531393	-92.697941	-82.023866	-67.627192	19.867868	63.801384	-14.293120	-1.228244
1.840000	-3.231024	-5.990108	85.130903	0.299450	0.928531	0.701470	-1.516196	-3.057113	2.728539	5.289073	0.092312	29.546462	13.049346	0.000000	-3.623981	0.241514	3.432757	0.659589	0.011512	27.778854	-11.938471	0.000000	-0.078546	-0.272564	2.118316	-0.145867	-0.362510	2.250711	-0.129043	-0.662711	2.250711	-0.089770	-0.662711	1.853526	-0.072938	-0.555812	1.721132	-0.044881	-0.422201	1.588737	-0.561045	-3.083294	11.781438	0.000000	0.000000	11.208796	3.925178	-9.142618	123.128079	-111.308157	113.412215	20.948409	59.460745	-2.427704	-3.829797	-86.316939	-81.028635	-70.705398	21.852127	70.198244	-14.745626	-0.698101
1.860000	-3.144932	-5.967061	85.165149	0.299391	0.928384	0.701421	-1.553178	-2.973696	2.700495	5.314457	0.092755	29.635158	13.022684	0.000000	-3.682437	0.165296	3.141558	0.692474	0.012086	27.832972	-11.565628	0.000000	-0.069651	-0.262022	2.136959	-0.129348	-0.348489	2.270519	-0.114429	-0.637080	2.270519	-0.079604	-0.637080	1.869839	-0.064678	-0.534315	1.736279	-0.039798	-0.405872	1.602719	-0.497508	-2.964045	11.885123	0.000000	0.000000	11.311364	3.945370	-9.413684	123.676195	-111.942187	108.066631	22.181659	64.993941	-3.320350	-2.267974	-80.584081	-80.224333	-72.849148	23.517557	75.915927	-15.194973	-0.088960
1.880000	-3.063394	-5.935841	85.196964	0.299320	0.928239	0.701411	-1.597321	-2.893675	2.715588	5.329330	0.093014	29.716485	12.961808	0.000000	-3.745154	0.094391	2.758383	0.727701	0.012701	27.921550	-11.078863	0.000000	-0.060284	-0.250740	2.165215	-0.111954	-0.333485	2.300541	-0.099041	-0.609650	2.300541	-0.068899	-0.609650	1.894564	-0.055980	-0.511310	1.759238	-0.034447	-0.388397	1.623912	-0.430606	-2.836427	12.042279	0.000000	0.000000	11.370240	3.952153	-9.651625	124.081680	-112.490410	103.388545	23.158469	69.642388	-4.105259	-0.878624	-75.781496	-79.665220	-73.950892	24.794343	80.637528	-15.731323	0.514751
1.900000	-2.993312	-5.893365	85.231189	0.299255	0.928107	0.701426	-1.658283	-2.821978	2.797887	5.320914	0.092867	29.780351	12.836640	0.000000	-3.814507	0.034048	2.377628	0.759973	0.013264	28.044158	-10.588666	0.000000	-0.050705	-0.240241	2.201160	-0.094164	-0.319520	2.338733	-0.083303	-0.584122	2.338733	-0.057951	-0.584122	1.926015	-0.047085	-0.489899	1.788443	-0.028973	-0.372133	1.650870	-0.362181	-2.717652	12.242192	0.000000	0.000000	11.368220	3.964374	-9.861576	124.360376	-112.913003	99.771165	23.798633	73.066459	-4.767748	0.263277	-72.002552	-79.373159	-74.068955	25.621255	84.047027	-16.302917	0.908005
1.920000	-2.942205	-5.836719	85.269533	0.299201	0.927999	0.701453	-1.736703	-2.768708	2.884665	5.295087	0.092417	29.830028	12.725416	0.000000	-3.892812	-0.008042	2.038654	0.785150	0.013703	28.212178	-10.143992	0.000000	-0.041335	-0.231602	2.246144	-0.076762	-0.308031	2.386528	-0.067909	-0.563118	2.386528	-0.047241	-0.563118	1.965376	-0.038383	-0.472284	1.824992	-0.023619	-0.358752	1.684608	-0.295249	-2.619932	12.492377	0.000000	0.000000	11.293982	3.979175	-10.069050	124.528458	-113.215822	97.299892	24.103772	75.223801	-5.246395	1.173450	-69.532308	-79.451374	-73.159289	25.876660	85.718986	-16.885619	0.928976
1.940000	-2.906598	-5.766965	85.309633	0.299150	0.927930	0.701491	-1.832843	-2.730768	2.997321	5.249035	0.091613	29.840443	12.605378	0.000000	-3.977289	-0.035989	1.751971	0.805484	0.014058	28.426073	-9.743476	0.000000	-0.032219	-0.224379	2.298528	-0.059834	-0.298424	2.442186	-0.052933	-0.545554	2.442186	-0.036823	-0.545554	2.011212	-0.029919	-0.457553	1.867554	-0.018410	-0.347562	1.723896	-0.230138	-2.538216	12.783725	0.000000	0.000000	11.141910	3.985822	-10.275744	124.582713	-113.354404	96.247325	24.025288	75.879415	-5.511503	1.789336	-68.538249	-79.928014	-71.211182	25.510171	85.389121	-17.408276	0.543035
1.960000	-2.864250	-5.680136	85.304341	0.299049	0.927911	0.701571	-1.930256	-2.693710	3.121205	5.215113	0.091021	29.800106	12.501163	0.000000	-4.076397	-0.064080	1.425807	0.820760	0.014325	28.672635	-9.295117	0.000000	-0.024876	-0.215599	2.360447	-0.046198	-0.286747	2.507975	-0.040870	-0.524207	2.507975	-0.028431	-0.524207	2.065391	-0.023100	-0.439650	1.917863	-0.014214	-0.333963	1.770335	-0.177690	-2.438899	13.128098	0.000000	0.000000	10.937027	4.008595	-10.497680	124.393476	-113.215128	96.996436	23.436566	74.547514	-5.549960	1.883399	-65.658885	-80.334825	-69.957381	25.400383	86.576505	-17.951424	-0.222041
